<svg xmlns="http://www.w3.org/2000/svg" version="1.0" viewBox="142.13 153.3 739.85 720.73">
  <path d="M2855 8699c-362-25-700-183-970-453-257-257-411-575-455-936-8-69-10-687-8-2265l3-2170 23-104c156-689 698-1188 1370-1260 141-15 4461-15 4600 0 185 20 353 69 516 151 499 249 822 723 876 1283 13 135 13 4150 0 4307-18 212-68 395-160 580-258 517-746 838-1320 868-192 10-4333 9-4475-1zm4196-979c125-37 179-94 179-190 0-111-95-248-255-371-113-86-883-601-920-616-22-8-32-56-60-283-107-867-177-1410-186-1437-6-18-31-55-55-82-50-56-179-141-212-141-26 0-47 30-67 96-13 44-215 782-302 1099-41 151-47 165-73 165-20 0-641-311-800-401-47-26-95-58-107-71-16-18-30-70-62-238-22-118-46-249-52-290-11-67-16-79-51-112-58-56-123-92-146-79-18 10-59 128-168 491-25 85-55 171-66 191-13 22-118 118-279 254-142 120-262 227-265 239-5 15 2 28 31 53 61 52 125 86 164 86 20 0 179-44 354-97 276-84 321-96 337-84 10 7 62 47 117 88 54 41 219 158 366 259 162 112 267 191 267 200-1 16-277 197-1035 677-203 129-378 244-388 256-17 20-17 22 0 41 22 24 144 107 200 136 23 11 58 21 78 21 19 0 153-36 297-80 145-43 582-176 971-294l708-215 407 265c224 146 466 306 537 355 72 49 153 96 180 106 101 33 245 35 356 3zM4030 4300c0-132 24-170 108-170 29 0 46 7 65 26 24 24 27 33 29 128l3 101 1335 3c1491 3 1385 8 1454-68 49-55 57-94 54-287l-3-167-25-13c-14-6-54-25-90-41-160-73-250-211-250-387 0-191 121-357 301-414 69-22 71-28 67-229l-3-180-30-43c-18-26-50-53-80-68l-49-26-1316-2c-723-1-1327 0-1342 4l-28 5v93c0 78-3 96-20 118-41 52-136 44-165-14-10-18-15-58-15-114v-85h-360c-335 0-363 1-398 19-43 22-73 53-96 98-23 46-20 391 4 404 8 4 46 22 84 39 127 56 208 144 246 269 71 228-53 452-299 541l-46 16-3 192c-2 173-1 196 17 229 24 47 56 77 101 97 29 13 96 15 393 16h357v-90z" style="fill:#1e88e5" transform="matrix(.1 0 0 -.1 0 1024)"/>
  <path d="m4065 3857-35-35v-391c0-418 2-435 49-461 25-13 77-13 102 0 47 26 49 43 49 464v395l-23 26c-15 18-36 28-64 32-39 5-46 2-78-30zM4643 3845c-27-19-46-75-37-109 3-14 20-37 36-51l30-25h1466l31 26c38 32 49 80 27 122-9 17-25 36-35 42-13 6-271 10-758 10-641 0-741-2-760-15zM4658 3264c-29-15-58-61-58-89 0-30 30-75 60-90 26-14 87-15 454-13 413 3 425 4 453 24 60 45 51 132-17 166-32 16-74 18-450 18-348-1-419-3-442-16z" style="fill:#1e88e5" transform="matrix(.1 0 0 -.1 0 1024)"/>
</svg>